<svg width="1400" height="900" viewBox="0 0 1400 900" fill="none" xmlns="http://www.w3.org/2000/svg">
  <rect width="1400" height="900" fill="#0F172A"/>
  <rect x="80" y="80" width="1240" height="740" rx="24" fill="#111827"/>
  <rect x="120" y="120" width="240" height="40" rx="20" fill="#06B6D4"/>
  <rect x="1050" y="120" width="210" height="40" rx="20" fill="#1E293B"/>
  <rect x="120" y="210" width="180" height="18" rx="9" fill="#E2E8F0"/>
  <rect x="120" y="250" width="130" height="14" rx="7" fill="#64748B"/>
  <g>
    <rect x="120" y="330" width="260" height="330" rx="18" fill="#0B1220"/>
    <rect x="120" y="330" width="260" height="210" rx="18" fill="#1E293B"/>
    <rect x="140" y="570" width="140" height="18" rx="9" fill="#E2E8F0"/>
    <rect x="140" y="605" width="90" height="14" rx="7" fill="#64748B"/>
  </g>
  <g>
    <rect x="410" y="330" width="260" height="330" rx="18" fill="#0B1220"/>
    <rect x="410" y="330" width="260" height="210" rx="18" fill="#1E293B"/>
    <rect x="430" y="570" width="140" height="18" rx="9" fill="#E2E8F0"/>
    <rect x="430" y="605" width="90" height="14" rx="7" fill="#64748B"/>
  </g>
  <rect x="120" y="700" width="260" height="40" rx="20" fill="#F43F5E"/>
  <rect x="410" y="700" width="260" height="40" rx="20" fill="#F43F5E"/>
</svg>