<svg width="1400" height="900" viewBox="0 0 1400 900" fill="none" xmlns="http://www.w3.org/2000/svg">
  <rect width="1400" height="900" fill="#020617"/>
  <rect x="220" y="120" width="960" height="660" rx="24" fill="#0F172A"/>
  <rect x="250" y="150" width="320" height="460" rx="18" fill="#1E293B"/>
  <rect x="610" y="150" width="520" height="30" rx="15" fill="#E2E8F0"/>
  <rect x="610" y="205" width="260" height="18" rx="9" fill="#64748B"/>
  <rect x="610" y="245" width="200" height="18" rx="9" fill="#06B6D4"/>
  <rect x="610" y="320" width="500" height="16" rx="8" fill="#334155"/>
  <rect x="610" y="350" width="470" height="16" rx="8" fill="#334155"/>
  <rect x="610" y="380" width="430" height="16" rx="8" fill="#334155"/>
  <rect x="610" y="430" width="90" height="26" rx="13" fill="#1E293B"/>
  <rect x="710" y="430" width="90" height="26" rx="13" fill="#1E293B"/>
  <rect x="810" y="430" width="90" height="26" rx="13" fill="#1E293B"/>
  <rect x="1120" y="150" width="28" height="28" rx="14" fill="#1E293B"/>
</svg>